<?xml version="1.0" encoding="iso-8859-1"?>
<!-- Generator: Adobe Illustrator 19.0.0, SVG Export Plug-In . SVG Version: 6.00 Build 0)  -->
<svg version="1.1" id="Capa_1" xmlns="http://www.w3.org/2000/svg" xmlns:xlink="http://www.w3.org/1999/xlink" x="0px" y="0px"
	 viewBox="0 0 512.001 512.001" style="enable-background:new 0 0 512.001 512.001;" xml:space="preserve">
<g>
	<g>
		<path d="M477.922,174.683H320.166L289.351,83.38c-0.862-17.65-15.489-31.744-33.35-31.744c-17.86,0-32.488,14.094-33.35,31.743
			l-30.817,91.302H34.079C15.288,174.683,0,189.97,0,208.762v217.524c0,18.792,15.288,34.079,34.079,34.079h36.413
			c5.124,0,9.276-4.153,9.276-9.276s-4.152-9.276-9.276-9.276H34.079c-8.562,0-15.528-6.966-15.528-15.528V208.762
			c0-8.562,6.966-15.528,15.528-15.528h164.385c0.01,0,0.02,0.003,0.03,0.003s0.021-0.003,0.031-0.003h114.95
			c0.01,0,0.021,0.003,0.031,0.003s0.02-0.003,0.03-0.003h164.386c8.562,0,15.528,6.966,15.528,15.528v217.524
			c0,8.562-6.966,15.528-15.528,15.528H100.175c-5.124,0-9.276,4.153-9.276,9.276s4.152,9.276,9.276,9.276h377.747
			c18.79,0,34.079-15.288,34.079-34.079V208.762C512,189.97,496.712,174.683,477.922,174.683z M256,70.189
			c8.182,0,14.84,6.658,14.84,14.84s-6.658,14.84-14.84,14.84s-14.84-6.658-14.84-14.84S247.818,70.189,256,70.189z
			 M211.413,174.683l21.977-65.109c5.953,5.488,13.895,8.847,22.609,8.847s16.658-3.359,22.609-8.847l21.975,65.109H211.413z"/>
	</g>
</g>
<g>
	<g>
		<path d="M323.054,263.051c-5.124,0-9.276,4.153-9.276,9.276v58.9L272.543,267.3c-2.231-3.457-6.472-5.032-10.416-3.87
			c-3.945,1.161-6.655,4.784-6.655,8.897v90.392c0,5.123,4.152,9.276,9.276,9.276s9.276-4.153,9.276-9.276v-58.899l41.235,63.926
			c1.74,2.697,4.703,4.248,7.795,4.248c0.872,0,1.754-0.124,2.621-0.378c3.945-1.161,6.655-4.784,6.655-8.897v-90.392
			C332.33,267.205,328.178,263.051,323.054,263.051z"/>
	</g>
</g>
<g>
	<g>
		<path d="M116.94,326.22c11.333-5.266,19.212-16.75,19.212-30.047c0-18.262-14.857-33.12-33.118-33.12H83.326
			c-5.124,0-9.276,4.153-9.276,9.276v90.392c0,5.123,4.152,9.276,9.276,9.276s9.276-4.153,9.276-9.276v-33.429h4.905l20.486,37.844
			c1.678,3.102,4.87,4.862,8.166,4.862c1.49,0,3.004-0.361,4.407-1.12c4.506-2.439,6.18-8.068,3.741-12.573L116.94,326.22z
			 M103.058,310.738c-0.021,0-0.041,0.001-0.062,0.001H92.602c0,0,0-29.136,0-29.136h10.432c8.032,0,14.567,6.535,14.567,14.568
			C117.601,304.195,111.078,310.724,103.058,310.738z"/>
	</g>
</g>
<g>
	<g>
		<path d="M220.3,327.041c5.124,0,9.276-4.153,9.276-9.276c0-5.123-4.152-9.276-9.276-9.276h-33.737v-26.885H220.3v-0.001
			c5.124,0,9.276-4.153,9.276-9.276c0-5.123-4.152-9.276-9.276-9.276h-43.013c-5.124,0-9.276,4.153-9.276,9.276v90.392
			c0,5.123,4.152,9.276,9.276,9.276H220.3c5.124,0,9.276-4.153,9.276-9.276c0-5.123-4.152-9.276-9.276-9.276h-33.737v-26.403H220.3z
			"/>
	</g>
</g>
<g>
	<g>
		<path d="M395.22,337.319c-5.124,0-9.276,4.153-9.276,9.276v16.126c0,5.123,4.152,9.276,9.276,9.276s9.276-4.153,9.276-9.276
			v-16.126C404.496,341.472,400.343,337.319,395.22,337.319z"/>
	</g>
</g>
<g>
	<g>
		<path d="M428.674,263.051h-66.908c-5.124,0-9.276,4.153-9.276,9.276c0,5.123,4.152,9.276,9.276,9.276h24.179v40.255
			c0,5.123,4.152,9.276,9.276,9.276s9.276-4.153,9.276-9.276v-40.255h24.178c5.124,0,9.276-4.153,9.276-9.276
			C437.949,267.205,433.797,263.051,428.674,263.051z"/>
	</g>
</g>
<g>
</g>
<g>
</g>
<g>
</g>
<g>
</g>
<g>
</g>
<g>
</g>
<g>
</g>
<g>
</g>
<g>
</g>
<g>
</g>
<g>
</g>
<g>
</g>
<g>
</g>
<g>
</g>
<g>
</g>
</svg>
